<svg xmlns="http://www.w3.org/2000/svg" viewBox="0 0 768.44 697.9"><defs><style>.a{fill:#8c288a;}.b{fill:#fff;}.c{fill:#8c2989;}</style></defs><title>lecke</title><path class="a" d="M768.95,288.78l-38.12-66L663.55,106.23l-22.1-38.28c-7.93-13.74-16.58-26.71-28.58-37.39A121.77,121.77,0,0,0,532.38,0c-9.08,0-18.16,0-27.25,0H274.29C255.13,0,236.58,2.85,219,10.83c-23.46,10.63-42.38,28.64-55.22,50.83q-23.12,40-46.16,80L52.05,255.13,34.19,286.07c-12.64,21.9-19.28,46.41-17.35,71.8,1.56,20.5,8.76,39,18.92,56.65L56.23,450,122.8,565.27c13.89,24.05,27.68,48.17,41.67,72.17a121.72,121.72,0,0,0,68.71,55c14.77,4.6,29.78,5.39,45.06,5.39H511.82c8,0,16,.16,24,0a121,121,0,0,0,88.35-42c7.87-9.22,13.69-19.6,19.71-30l24.34-42.15,67.57-117,25.06-43.4c5.6-9.7,11.49-19.25,15.68-29.67,13.68-34.06,10.51-72.92-7.55-104.72-1.59-2.8-5.91-.28-4.32,2.52,19.74,34.77,20.55,77.89,1.23,113.06-3.71,6.75-7.68,13.36-11.53,20L694.39,528.21l-55.68,96.43c-6.65,11.52-13.24,22.78-22.54,32.52a116.46,116.46,0,0,1-83.63,35.68c-27,.13-54,0-81,0H277.07c-16.43,0-32.45-1.36-48.09-7.08-25.85-9.46-47-28.08-60.74-51.79q-7.61-13.15-15.19-26.32L89.81,498.12l-50.2-86.95c-11.24-19.46-18.24-40.32-18.1-63.05,0.14-22.21,7.2-42.55,18.17-61.56L90.3,198.89,153.38,89.62q7.47-12.93,14.94-25.87c13.83-23.87,35.27-42.54,61.35-51.9C245.23,6.27,261.13,5,277.45,5H452.52c26.69,0,53.39-.13,80.09,0a116.45,116.45,0,0,1,84.57,36.74c8.93,9.59,15.28,20.62,21.76,31.85l55.95,96.9L754.62,274l10,17.34C766.24,294.09,770.56,291.57,768.95,288.78Z" transform="translate(-16.52 0)"/><polygon class="b" points="518.97 115.73 249.71 115.73 115.08 348.93 249.71 582.12 518.97 582.12 653.61 348.93 518.97 115.73"/><path class="a" d="M535.49,113.24H266.22a2.51,2.51,0,0,0-2.16,1.24L217.92,194.4,145.48,319.88l-11,19.05c-1.55,2.69-3.79,5.55-4.89,8.46-0.91,2.41.5,3.93,1.69,6l8.31,14.39,69.1,119.68c18.15,31.43,35.85,63.17,54.46,94.34,0.31,0.52.61,1.05,0.91,1.58a2.51,2.51,0,0,0,2.16,1.24H535.49a2.51,2.51,0,0,0,2.16-1.24l46.15-79.93L656.24,378l11-19.05c1.55-2.69,3.79-5.55,4.89-8.46,0.91-2.41-.5-3.93-1.69-6l-8.31-14.39L593,210.39c-18.15-31.43-35.85-63.17-54.46-94.34-0.31-.52-0.61-1.05-0.91-1.58-1.61-2.79-5.93-.27-4.32,2.52L579,196.1l72.24,125.12,16.72,29v-2.52l-45.67,79.1L550.05,551.89l-16.72,29,2.16-1.24H266.22l2.16,1.24-45.67-79.1L150.47,376.63l-16.72-29v2.52l45.67-79.1L251.66,146l16.72-29-2.16,1.24H535.49C538.71,118.24,538.71,113.24,535.49,113.24Z" transform="translate(-16.52 0)"/><path class="a" d="M129.18,348.26c-6.26,17.34-13.11,34.57-18.22,52.28-9.44,32.69-13.64,67-13.43,101,0,6.84.17,13.73,0.83,20.55,0.31,3.17,5.31,3.21,5,0-1.83-19-1-38.48.78-57.41A342.58,342.58,0,0,1,114,408.37c4.44-16.75,10.69-32.93,16.57-49.21l3.45-9.56c1.1-3-3.73-4.34-4.82-1.33h0Z" transform="translate(-16.52 0)"/><path class="a" d="M537.26,114c-13.69-16.24-26.92-33-42.08-47.9A362.39,362.39,0,0,0,419,9.18C413.51,6.06,407.9,3,402.12.36c-2.91-1.32-5.45,3-2.52,4.32,16,7.27,31.15,16.81,45.56,26.74A351.3,351.3,0,0,1,486.92,65c13.73,13,25.7,27.43,37.85,41.84l9,10.62c2.08,2.46,5.6-1.09,3.54-3.54h0Z" transform="translate(-16.52 0)"/><path class="a" d="M264.46,583.89c13.69,16.24,26.92,33,42.08,47.9a362.39,362.39,0,0,0,76.14,56.89c5.53,3.12,11.14,6.19,16.92,8.82,2.91,1.32,5.45-3,2.52-4.32-16-7.27-31.15-16.81-45.56-26.74a351.3,351.3,0,0,1-41.77-33.63c-13.73-13-25.7-27.43-37.85-41.84l-9-10.62c-2.08-2.46-5.6,1.09-3.54,3.54h0Z" transform="translate(-16.52 0)"/><path class="a" d="M536.15,584.53c20.56-3.68,41.34-6.7,61.5-12.21A361.83,361.83,0,0,0,686,534.51c5.46-3.23,10.91-6.54,16.07-10.22,2.6-1.85.1-6.19-2.52-4.32-14.35,10.24-30.27,18.65-46.15,26.18a350.66,350.66,0,0,1-50.64,19.5c-18,5.33-36.39,8.4-54.81,11.7l-13.17,2.35c-3.16.57-1.82,5.39,1.33,4.82h0Z" transform="translate(-16.52 0)"/><path class="a" d="M672.53,349.59c6.26-17.34,13.11-34.57,18.22-52.28,9.44-32.69,13.64-67,13.43-101,0-6.84-.17-13.73-0.83-20.55-0.31-3.17-5.31-3.21-5,0,1.83,19,1,38.48-.78,57.41a342.58,342.58,0,0,1-9.85,56.36c-4.44,16.75-10.69,32.93-16.57,49.21l-3.45,9.56c-1.1,3,3.73,4.34,4.82,1.33h0Z" transform="translate(-16.52 0)"/><path class="a" d="M265.56,113.38c-20.56,3.68-41.34,6.7-61.5,12.21a361.83,361.83,0,0,0-88.39,37.81c-5.46,3.23-10.91,6.54-16.07,10.22-2.6,1.85-.1,6.19,2.52,4.32,14.35-10.24,30.27-18.65,46.15-26.18a350.66,350.66,0,0,1,50.64-19.5c18-5.33,36.39-8.4,54.81-11.7l13.17-2.35c3.16-.57,1.82-5.39-1.33-4.82h0Z" transform="translate(-16.52 0)"/><path class="a" d="M246.89,69.36c-0.31,6.81-5.46,12.5-12.5,12.5a12.5,12.5,0,1,1,0-25c7.05,0,12.19,5.68,12.5,12.5,0.14,3.2,5.14,3.22,5,0-0.43-9.5-7.67-17.5-17.5-17.5a17.5,17.5,0,1,0,0,35c9.83,0,17.07-8,17.5-17.5C252,66.15,247,66.15,246.89,69.36Z" transform="translate(-16.52 0)"/><path class="a" d="M579.77,69.34c-0.31,6.81-5.46,12.5-12.5,12.5a12.5,12.5,0,0,1,0-25c7.05,0,12.19,5.68,12.5,12.5,0.14,3.2,5.14,3.22,5,0-0.43-9.5-7.67-17.5-17.5-17.5a17.5,17.5,0,0,0,0,35c9.83,0,17.07-8,17.5-17.5C584.92,66.12,579.91,66.13,579.77,69.34Z" transform="translate(-16.52 0)"/><path class="a" d="M579.81,628.49c-0.31,6.81-5.46,12.5-12.5,12.5a12.5,12.5,0,0,1,0-25c7.05,0,12.19,5.68,12.5,12.5,0.14,3.2,5.14,3.22,5,0-0.43-9.5-7.67-17.5-17.5-17.5a17.5,17.5,0,0,0,0,35c9.83,0,17.07-8,17.5-17.5C585,625.27,580,625.28,579.81,628.49Z" transform="translate(-16.52 0)"/><path class="a" d="M245,628.49c-0.31,6.81-5.46,12.5-12.5,12.5a12.5,12.5,0,0,1,0-25c7.05,0,12.19,5.68,12.5,12.5,0.14,3.2,5.14,3.22,5,0-0.43-9.5-7.67-17.5-17.5-17.5a17.5,17.5,0,0,0,0,35c9.83,0,17.07-8,17.5-17.5C250.17,625.27,245.17,625.28,245,628.49Z" transform="translate(-16.52 0)"/><path class="a" d="M80.36,348.93c-0.31,6.81-5.46,12.5-12.5,12.5a12.5,12.5,0,1,1,0-25c7.05,0,12.19,5.68,12.5,12.5,0.14,3.2,5.14,3.22,5,0-0.43-9.5-7.67-17.5-17.5-17.5a17.5,17.5,0,1,0,0,35c9.83,0,17.07-8,17.5-17.5C85.5,345.71,80.5,345.72,80.36,348.93Z" transform="translate(-16.52 0)"/><path class="a" d="M738.84,348.93c-0.31,6.81-5.46,12.5-12.5,12.5a12.5,12.5,0,0,1,0-25c7.05,0,12.19,5.68,12.5,12.5,0.14,3.2,5.14,3.22,5,0-0.43-9.5-7.67-17.5-17.5-17.5a17.5,17.5,0,0,0,0,35c9.83,0,17.07-8,17.5-17.5C744,345.71,739,345.72,738.84,348.93Z" transform="translate(-16.52 0)"/><path class="a" d="M230,175.72V507.9c0,4.41-.56,9.26,0,13.64a4.78,4.78,0,0,1,0,.59,2.54,2.54,0,0,0,2.5,2.5h336.6a2.54,2.54,0,0,0,2.5-2.5V190c0-4.41.56-9.26,0-13.64a4.78,4.78,0,0,1,0-.59,2.54,2.54,0,0,0-2.5-2.5H232.52c-3.22,0-3.22,5,0,5h336.6l-2.5-2.5V516.85c0,1.28-.43,3.46,0,4.69a2.15,2.15,0,0,1,0,.59l2.5-2.5H232.52l2.5,2.5V190c0-4.41.56-9.26,0-13.64a4.78,4.78,0,0,1,0-.59C235,172.51,230,172.5,230,175.72Z" transform="translate(-16.52 0)"/><path class="c" d="M70.83,305.59L72,310.64l-1.08,1.87-1.64-4.17Zm13.53,7.22-3.93,6.81,6.31,3.64,4.38-7.59,1.9,1.1-5.69,9.85L69.82,316.51l5.46-9.46,1.9,1.1L73,315.35l5.53,3.2,3.93-6.81Z" transform="translate(-16.52 0)"/><path class="c" d="M85.5,308.62c-1.3-.75-2.38-1.34-3.46-1.86l1.17-2,2.15,1.07,0-.05a5.34,5.34,0,0,1,0-5.52c1-1.74,3.6-3.84,7.92-1.35l7.51,4.33-1.32,2.29-7.25-4.19c-2-1.17-4.15-1.39-5.4.76a3.87,3.87,0,0,0,1.54,5.19L96,311.63l-1.32,2.29Z" transform="translate(-16.52 0)"/><path class="c" d="M101,289.33c3.12,1.73,5.54.49,6.86-1.79a9.55,9.55,0,0,0,1.36-3.86l1.86,0.56a11.74,11.74,0,0,1-1.64,4.63c-2.23,3.87-6.12,4.71-9.91,2.52s-5.49-6.15-3.38-9.81c2.37-4.11,6.61-3.11,8.92-1.78a9.89,9.89,0,0,1,1,.69Zm2.23-7.65c-1.44-.87-4.06-1.55-5.55,1-1.33,2.31.21,4.56,1.69,5.65Z" transform="translate(-16.52 0)"/><path class="c" d="M111.54,281.64l-4.12-10c-0.36-.94-0.66-1.8-1-2.76l-0.05,0-3.93,6.81-1.84-1.06,5.54-9.59,1.41,0.85,4.06,9.83c0.4,0.92.73,1.8,1,2.75l0.05,0,4.24-7.35,1.82,1.05-5.89,10.21Z" transform="translate(-16.52 0)"/><path class="c" d="M105.51,257.76l3.61,2.08,1.89-3.27,1.74,1-1.89,3.27,6.78,3.92c1.56,0.9,2.7,1,3.43-.31a5.89,5.89,0,0,0,.61-1.41l1.77,0.89a6.47,6.47,0,0,1-.86,2.21,3.66,3.66,0,0,1-2.39,1.91c-1,.26-2.3-0.15-3.78-1l-6.86-4L108.45,265l-1.74-1,1.13-1.95-3-1.74Z" transform="translate(-16.52 0)"/><path class="c" d="M116.19,247.6l8.49,1.61a37.31,37.31,0,0,1,3.81.85l0-.08c-0.87-.89-1.7-1.85-2.61-2.92l-5.66-6.52,1.38-2.39,9.72,12.2-1.26,2.18L114.78,250Z" transform="translate(-16.52 0)"/><path class="c" d="M121.89,225.19l1.88,5.31-0.95,1.64-2.39-4.43Zm17.54,11.2-1.69-.73,0,0.08a5.41,5.41,0,0,1-.35,4.92,4.14,4.14,0,0,1-5.83,1.76c-3-1.75-3.14-5.42-.31-10.26l-0.26-.15c-1-.6-3.08-1.39-4.56,1.18a7.22,7.22,0,0,0-1,3.81l-1.81-.35a9,9,0,0,1,1.27-4.78c2.22-3.85,5.38-3.27,7.9-1.81l4.7,2.71a20.51,20.51,0,0,0,3.13,1.53ZM132.81,233c-1.49,2.46-2.68,5.55-.24,7a2.34,2.34,0,0,0,3.43-.9,3.61,3.61,0,0,0-.35-4.25,2.74,2.74,0,0,0-.65-0.55Z" transform="translate(-16.52 0)"/><path class="c" d="M124.19,220.18l1.32-2.29L144,228.55l-1.32,2.29Z" transform="translate(-16.52 0)"/><path class="c" d="M127.73,214.05l1.32-2.29,18.45,10.65-1.32,2.29Z" transform="translate(-16.52 0)"/><path class="c" d="M153.73,211.61l-1.69-.73,0,0.08a5.4,5.4,0,0,1-.35,4.92,4.14,4.14,0,0,1-5.83,1.76c-3-1.75-3.14-5.42-.31-10.26l-0.26-.15c-1-.6-3.07-1.39-4.56,1.18a7.24,7.24,0,0,0-1,3.81l-1.81-.35a9,9,0,0,1,1.27-4.78c2.22-3.85,5.38-3.27,7.9-1.81l4.7,2.71a20.46,20.46,0,0,0,3.13,1.53Zm-6.61-3.37c-1.49,2.46-2.68,5.55-.24,7a2.34,2.34,0,0,0,3.43-.9A3.61,3.61,0,0,0,150,210a2.76,2.76,0,0,0-.65-0.55Z" transform="translate(-16.52 0)"/><path class="c" d="M138.5,195.4l1.32-2.29,18.45,10.65L156.94,206Z" transform="translate(-16.52 0)"/><path class="c" d="M160.66,184.85c4.65,2.69,4.82,7.08,3.06,10.12-2,3.4-6,4.59-9.95,2.29-4.21-2.43-5.09-6.61-3.08-10.09S156.82,182.63,160.66,184.85ZM155,194.9c2.75,1.59,5.75,1.21,7-1s0.15-5-2.68-6.64c-2.13-1.23-5.45-1.73-7,1S152.64,193.52,155,194.9Z" transform="translate(-16.52 0)"/><path class="c" d="M159.55,180.36c-1.3-.75-2.38-1.34-3.46-1.86l1.16-2,2.09,1.07,0-.08a5,5,0,0,1,0-5.28,4.29,4.29,0,0,1,4.58-2.1l0-.05a6,6,0,0,1-.83-2.35,5,5,0,0,1,.72-3.29c1-1.66,3.48-3.5,7.84-1l7.4,4.28-1.29,2.23-7.12-4.11c-2.42-1.4-4.38-1.35-5.45.49a3.42,3.42,0,0,0,.52,3.9,4.36,4.36,0,0,0,1,.84l7.77,4.49-1.29,2.23-7.53-4.35c-2-1.15-4-1.11-5,.63a3.93,3.93,0,0,0,1.66,5l7.59,4.38-1.29,2.24Z" transform="translate(-16.52 0)"/><path class="c" d="M656.49,454.77l-3.08,5.33L651.49,459,659,446l1.92,1.11-3.09,5.35,15.59,9-1.32,2.29Z" transform="translate(-16.52 0)"/><path class="c" d="M679.54,442.93c1.3,0.75,2.46,1.38,3.49,1.88l-1.17,2-2.13-1.06,0,0.05a5.46,5.46,0,0,1-.06,5.51c-1.14,2-3.6,3.71-8,1.16l-7.35-4.25,1.32-2.29,7,4c2.39,1.38,4.42,1.58,5.62-.5a3.82,3.82,0,0,0-.34-4.21,3.87,3.87,0,0,0-1-.88l-7.72-4.46,1.32-2.29Z" transform="translate(-16.52 0)"/><path class="c" d="M673,419.61l15.2,8.77c1.12,0.64,2.41,1.35,3.31,1.77l-1.18,2.05L688.06,431l0,0.05a5.37,5.37,0,0,1,0,5.71c-1.75,3-5.68,3.89-9.5,1.69-4.2-2.39-5.27-6.47-3.5-9.54a4.85,4.85,0,0,1,4.11-2.68l0-.05-7.51-4.34Zm9.67,8.63a4.7,4.7,0,0,0-1-.45,3.88,3.88,0,0,0-4.55,1.77c-1.37,2.36-.1,5,2.68,6.57,2.55,1.47,5.37,1.44,6.8-1a4,4,0,0,0-.79-4.93,4.59,4.59,0,0,0-.93-0.67Z" transform="translate(-16.52 0)"/><path class="c" d="M680.1,408.3l1.88,5.31L681,415.25l-2.4-4.43Zm17.54,11.2-1.69-.73,0,0.08a5.41,5.41,0,0,1-.35,4.93,4.14,4.14,0,0,1-5.83,1.76c-3-1.75-3.14-5.42-.31-10.26l-0.26-.15c-1-.6-3.08-1.39-4.56,1.18a7.24,7.24,0,0,0-1,3.81l-1.81-.35A9,9,0,0,1,683.1,415c2.22-3.84,5.38-3.27,7.9-1.81l4.7,2.71a20.42,20.42,0,0,0,3.13,1.53ZM691,416.13c-1.49,2.46-2.68,5.55-.24,7a2.33,2.33,0,0,0,3.43-.9,3.61,3.61,0,0,0-.35-4.25,2.75,2.75,0,0,0-.65-0.55Z" transform="translate(-16.52 0)"/><path class="c" d="M698.33,412.9a6.92,6.92,0,0,0,2.65-2.49c1-1.66.58-2.92-.46-3.52s-2.06-.33-3.66,1c-2.11,1.8-4,2.14-5.48,1.27-2-1.17-2.74-3.77-1.18-6.47a7.24,7.24,0,0,1,2.56-2.64l1.33,1.53a5.65,5.65,0,0,0-2.21,2.15c-0.78,1.35-.44,2.55.5,3.09s1.94,0.12,3.51-1.16c2.09-1.7,3.83-2.19,5.7-1.11,2.21,1.27,2.78,3.89,1.05,6.88a8.28,8.28,0,0,1-2.9,3Z" transform="translate(-16.52 0)"/><path class="c" d="M692.19,391.55l3.61,2.08,1.89-3.27,1.74,1-1.89,3.27,6.78,3.91c1.56,0.9,2.7,1,3.43-.3a5.81,5.81,0,0,0,.61-1.42l1.78,0.89a6.48,6.48,0,0,1-.86,2.21,3.66,3.66,0,0,1-2.39,1.91c-1,.26-2.3-0.15-3.78-1l-6.86-4-1.12,1.95-1.74-1,1.13-1.95-3-1.74Z" transform="translate(-16.52 0)"/><path class="c" d="M698.23,376.89l1.88,5.31-0.94,1.64-2.4-4.43Zm17.54,11.2-1.69-.73,0,0.08a5.41,5.41,0,0,1-.35,4.92,4.14,4.14,0,0,1-5.83,1.76c-3-1.75-3.14-5.42-.31-10.26l-0.26-.15c-1-.6-3.08-1.39-4.56,1.18a7.24,7.24,0,0,0-1,3.81l-1.81-.35a9,9,0,0,1,1.27-4.78c2.22-3.85,5.38-3.27,7.9-1.81l4.7,2.71A20.47,20.47,0,0,0,717,386Zm-6.61-3.37c-1.49,2.46-2.68,5.55-.24,7a2.34,2.34,0,0,0,3.43-.9,3.61,3.61,0,0,0-.35-4.25,2.74,2.74,0,0,0-.65-0.55Z" transform="translate(-16.52 0)"/><path class="c" d="M710.33,377.53c-1.48-.85-2.77-1.56-4-2.16l1.16-2,2.51,1.35,0.06-.1a4.36,4.36,0,0,1-.74-5.07,2.85,2.85,0,0,1,.45-0.6l2.16,1.24a4,4,0,0,0-.53.73c-0.93,1.61-.37,3.46,1.17,4.76a7.53,7.53,0,0,0,1,.72l6.7,3.87-1.3,2.26Z" transform="translate(-16.52 0)"/><path class="c" d="M127.31,460.27a9.24,9.24,0,0,0,1.2,4.71c1.33,2.31,3.34,3,5.1,1.94s2-2.42,1.58-5.31c-0.64-3.44-.18-6.06,2.29-7.49,2.73-1.57,6.06-.48,8,2.92a9.18,9.18,0,0,1,1.38,4.37l-2.2.44a8.06,8.06,0,0,0-1.09-3.81c-1.38-2.39-3.33-2.47-4.53-1.78-1.64.94-1.83,2.47-1.37,5.43,0.57,3.62,0,6-2.56,7.44s-6.2.91-8.58-3.22a10.46,10.46,0,0,1-1.46-5.12Z" transform="translate(-16.52 0)"/><path class="c" d="M138.78,472.94c-3.06,1.84-3.2,4.55-1.87,6.83a9.56,9.56,0,0,0,2.66,3.11l-1.41,1.33a11.76,11.76,0,0,1-3.19-3.73c-2.23-3.87-1-7.65,2.77-9.84s8.07-1.68,10.19,2c2.37,4.11-.61,7.28-2.92,8.62a10.1,10.1,0,0,1-1.11.54Zm5.51,5.76c1.47-.81,3.37-2.74,1.89-5.31-1.33-2.31-4.05-2.1-5.74-1.36Z" transform="translate(-16.52 0)"/><path class="c" d="M158.52,491.65c-0.94.47-2,1-3.51,1.89l-7.3,4.21c-2.88,1.67-5,2.11-6.78,1.52a7.7,7.7,0,0,1-4.15-3.7,9.37,9.37,0,0,1-1.38-4.78l2.07-.43a8.2,8.2,0,0,0,1.14,4.26c1.35,2.34,3.56,3.35,6.73,1.52l1.4-.81,0-.05a5.18,5.18,0,0,1-4.41-2.79c-1.8-3.12-.44-6.88,3-8.89,4.26-2.46,8.28-1.08,9.95,1.81a4.83,4.83,0,0,1,.08,5.18l0,0.05,2-1Zm-6.33.5a3.72,3.72,0,0,0,1-.73,3.8,3.8,0,0,0,.57-4.59c-1.26-2.18-4-2.68-6.91-1-2.47,1.43-3.8,3.86-2.38,6.33A3.86,3.86,0,0,0,148.6,494a4.55,4.55,0,0,0,1.33-.52Z" transform="translate(-16.52 0)"/><path class="c" d="M148,502.44l12.57-7.26,1.32,2.29-12.57,7.26Zm20.69-5.74-5.54-1L162.18,494l5,0.14Z" transform="translate(-16.52 0)"/><path class="c" d="M169.27,501.93L165.66,504l1.89,3.27-1.74,1L163.92,505l-6.78,3.92c-1.56.9-2.19,1.85-1.45,3.13a5.9,5.9,0,0,0,.92,1.23l-1.65,1.09a6.46,6.46,0,0,1-1.48-1.85,3.66,3.66,0,0,1-.46-3c0.3-1,1.28-1.92,2.76-2.77l6.86-4-1.12-1.95,1.74-1,1.13,1.95,3-1.74Z" transform="translate(-16.52 0)"/><path class="c" d="M158.61,515.46a6.93,6.93,0,0,0,.83,3.54c1,1.66,2.24,2,3.28,1.36s1.31-1.62,1-3.67c-0.5-2.72.13-4.51,1.64-5.38,2-1.17,4.63-.49,6.19,2.21a7.24,7.24,0,0,1,1,3.54l-2,.39a5.65,5.65,0,0,0-.76-3c-0.78-1.35-2-1.65-2.93-1.12s-1.07,1.63-.75,3.62c0.43,2.66,0,4.41-1.89,5.49-2.21,1.27-4.76.46-6.48-2.53a8.28,8.28,0,0,1-1.18-4Z" transform="translate(-16.52 0)"/><path class="c" d="M169,525.29c-3.06,1.84-3.2,4.55-1.87,6.83a9.53,9.53,0,0,0,2.66,3.11l-1.41,1.33a11.71,11.71,0,0,1-3.19-3.73c-2.23-3.87-1-7.65,2.77-9.84s8.07-1.68,10.19,2c2.37,4.11-.61,7.28-2.92,8.62a10.1,10.1,0,0,1-1.11.54Zm5.51,5.76c1.47-.81,3.37-2.74,1.89-5.31-1.33-2.31-4.05-2.1-5.74-1.36Zm10.81-5.52-5.54-1-0.94-1.64,5,0.14Z" transform="translate(-16.52 0)"/><path class="c" d="M188.74,544c-0.94.47-2,1-3.51,1.89l-7.3,4.21c-2.88,1.66-5,2.11-6.78,1.52a7.69,7.69,0,0,1-4.15-3.7,9.37,9.37,0,0,1-1.38-4.78l2.07-.43a8.19,8.19,0,0,0,1.14,4.26c1.35,2.34,3.56,3.35,6.73,1.52l1.4-.81,0-.05a5.18,5.18,0,0,1-4.41-2.79c-1.8-3.12-.44-6.88,3-8.89,4.26-2.46,8.28-1.08,9.95,1.81a4.83,4.83,0,0,1,.08,5.18l0,0.05,2-1Zm-6.33.5a3.86,3.86,0,0,0,1.54-5.32c-1.26-2.18-4-2.68-6.91-1-2.47,1.42-3.8,3.86-2.38,6.32a3.86,3.86,0,0,0,4.17,1.82,4.61,4.61,0,0,0,1.33-.52Z" transform="translate(-16.52 0)"/><path class="c" d="M186.41,553.28l0,0.05c0.62,0.06,1.42.18,2.07,0.29l6.47,1.18,1.59,2.75-8-1.87-4.21,9.81-1.6-2.78,3.52-7.82-2-.42-4.73,2.73-1.31-2.26,18.45-10.65,1.3,2.26Z" transform="translate(-16.52 0)"/><path class="c" d="M191.94,565c-3.06,1.84-3.2,4.55-1.87,6.83a9.54,9.54,0,0,0,2.66,3.11l-1.41,1.33a11.76,11.76,0,0,1-3.19-3.73c-2.23-3.87-1-7.65,2.77-9.84s8.07-1.68,10.19,2c2.37,4.11-.61,7.28-2.92,8.62a10.1,10.1,0,0,1-1.11.54Zm5.51,5.76c1.47-.81,3.37-2.74,1.89-5.31-1.33-2.31-4.05-2.1-5.74-1.36Zm10.81-5.51-5.54-1-0.94-1.64,5,0.14Z" transform="translate(-16.52 0)"/><path class="c" d="M201.5,575.15c1.48-.86,2.74-1.62,3.86-2.37l1.15,2-2.42,1.5,0.06,0.1a4.36,4.36,0,0,1,4.76,1.89,2.86,2.86,0,0,1,.3.7l-2.16,1.24a4,4,0,0,0-.37-0.82c-0.93-1.61-2.81-2-4.71-1.37a7.32,7.32,0,0,0-1.13.51l-6.7,3.87-1.31-2.26Z" transform="translate(-16.52 0)"/><path class="c" d="M204.21,586.27c-3.06,1.84-3.2,4.55-1.88,6.83a9.53,9.53,0,0,0,2.66,3.11l-1.41,1.33a11.75,11.75,0,0,1-3.19-3.73c-2.23-3.87-1-7.65,2.77-9.84s8.07-1.68,10.19,2c2.37,4.1-.61,7.28-2.92,8.62a10.11,10.11,0,0,1-1.11.54Zm5.51,5.76c1.47-.81,3.37-2.74,1.89-5.31-1.33-2.31-4.05-2.1-5.74-1.36Zm10.81-5.51-5.54-1L214,583.85l5,0.14Z" transform="translate(-16.52 0)"/><path class="c" d="M207.27,599.74a6.92,6.92,0,0,0,.83,3.54c1,1.66,2.24,2,3.28,1.36s1.31-1.62,1-3.67c-0.5-2.72.13-4.51,1.64-5.38,2-1.17,4.63-.49,6.19,2.21a7.24,7.24,0,0,1,1,3.54l-2,.39a5.66,5.66,0,0,0-.76-3c-0.78-1.35-2-1.65-2.93-1.11s-1.07,1.62-.75,3.62c0.43,2.66,0,4.41-1.89,5.49-2.21,1.28-4.76.46-6.48-2.53a8.26,8.26,0,0,1-1.18-4Z" transform="translate(-16.52 0)"/><path class="c" d="M591.77,94l-3.07-5.33,1.92-1.11,7.49,13-1.92,1.11-3.09-5.35-15.59,9L576.18,103Z" transform="translate(-16.52 0)"/><path class="c" d="M590.5,119.92c-1.3.75-2.43,1.44-3.37,2.08L586,120l2-1.31,0-.05a5.46,5.46,0,0,1-4.74-2.81c-1.14-2-1.41-5,3-7.52l7.35-4.24,1.32,2.29-7,4c-2.39,1.38-3.58,3-2.38,5.12a3.82,3.82,0,0,0,3.82,1.81,3.86,3.86,0,0,0,1.29-.47l7.72-4.45,1.32,2.29Zm7.56-16.25a1.54,1.54,0,0,1,2.09.56,1.47,1.47,0,0,1-.59,2,1.49,1.49,0,0,1-2.06-.51A1.52,1.52,0,0,1,598.06,103.67Zm2.79,4.83a1.51,1.51,0,0,1,2.08.53,1.47,1.47,0,0,1-.59,2A1.49,1.49,0,1,1,600.85,108.5Z" transform="translate(-16.52 0)"/><path class="c" d="M598.43,120.4c1.3-.75,2.35-1.39,3.34-2.07l1.17,2-2,1.33,0,0.05a5.34,5.34,0,0,1,4.76,2.79c1,1.74,1.53,5-2.79,7.53l-7.51,4.33-1.32-2.29,7.25-4.19c2-1.17,3.28-2.9,2-5.05a3.87,3.87,0,0,0-5.26-1.26L590.58,128l-1.32-2.29Z" transform="translate(-16.52 0)"/><path class="c" d="M604.2,138c-3.06,1.84-3.2,4.55-1.87,6.83a9.56,9.56,0,0,0,2.66,3.11l-1.41,1.33a11.77,11.77,0,0,1-3.19-3.73c-2.23-3.87-1-7.65,2.77-9.84s8.07-1.68,10.19,2c2.37,4.11-.61,7.28-2.92,8.62a10,10,0,0,1-1.11.54Zm5.51,5.76c1.47-.81,3.37-2.74,1.89-5.31-1.33-2.31-4-2.1-5.74-1.36Z" transform="translate(-16.52 0)"/><path class="c" d="M622.88,146.54l-3.61,2.08,1.89,3.27-1.74,1-1.89-3.27-6.78,3.92c-1.56.9-2.19,1.85-1.45,3.13a5.88,5.88,0,0,0,.92,1.24L608.56,159a6.48,6.48,0,0,1-1.48-1.85,3.66,3.66,0,0,1-.46-3c0.3-1,1.28-1.92,2.76-2.77l6.86-4-1.12-1.95,1.74-1,1.13,1.95,3-1.74Z" transform="translate(-16.52 0)"/><path class="c" d="M616.59,159.45c-3.06,1.84-3.19,4.55-1.87,6.83a9.56,9.56,0,0,0,2.66,3.11L616,170.73a11.77,11.77,0,0,1-3.19-3.73c-2.23-3.87-1-7.65,2.77-9.84s8.07-1.68,10.19,2c2.37,4.1-.61,7.28-2.92,8.62a10.06,10.06,0,0,1-1.11.54Zm5.51,5.76c1.47-.81,3.37-2.74,1.88-5.31-1.33-2.31-4-2.1-5.74-1.36Z" transform="translate(-16.52 0)"/><path class="c" d="M635.94,163.94l1.32,2.29-18.45,10.65-1.32-2.29Z" transform="translate(-16.52 0)"/><path class="c" d="M639.48,170.07l1.32,2.29L622.35,183,621,180.72Z" transform="translate(-16.52 0)"/><path class="c" d="M631.18,184.73c-3.06,1.84-3.2,4.55-1.87,6.83a9.56,9.56,0,0,0,2.66,3.11L630.55,196a11.78,11.78,0,0,1-3.19-3.73c-2.23-3.87-1-7.65,2.77-9.84s8.07-1.68,10.19,2c2.37,4.11-.61,7.28-2.92,8.62a10,10,0,0,1-1.11.54Zm5.51,5.76c1.47-.81,3.37-2.74,1.89-5.31-1.33-2.31-4-2.1-5.74-1.36Z" transform="translate(-16.52 0)"/><path class="c" d="M641.26,194.57c1.3-.75,2.35-1.39,3.34-2.07l1.17,2-2,1.33,0,0.05a5.34,5.34,0,0,1,4.76,2.79c1,1.74,1.53,5-2.79,7.53l-7.51,4.33-1.32-2.29,7.25-4.19c2-1.17,3.28-2.9,2-5.05a3.87,3.87,0,0,0-5.26-1.26l-7.56,4.37-1.32-2.29Z" transform="translate(-16.52 0)"/><path class="c" d="M653.37,222c-4.65,2.69-8.54.63-10.29-2.41-2-3.4-1-7.47,3-9.76,4.21-2.43,8.27-1.1,10.28,2.38S657.22,219.75,653.37,222Zm-5.89-9.9c-2.75,1.59-3.92,4.37-2.63,6.61s4.26,2.63,7.09,1c2.13-1.23,4.22-3.86,2.66-6.56S649.88,210.69,647.48,212.07Zm14.7-1.66-5.21-.8-0.83-1.43h4.75Zm2.18,3.77-5.22-.83-0.83-1.43h4.74Z" transform="translate(-16.52 0)"/><path class="c" d="M657.3,223.55c1.48-.86,2.74-1.62,3.86-2.37l1.16,2-2.42,1.5,0.06,0.1a4.36,4.36,0,0,1,4.76,1.89,2.82,2.82,0,0,1,.3.69l-2.16,1.25a3.93,3.93,0,0,0-.37-0.82c-0.93-1.61-2.81-2-4.71-1.37a7.41,7.41,0,0,0-1.12.51l-6.7,3.87-1.3-2.26Z" transform="translate(-16.52 0)"/><path class="c" d="M654.19,235.08l10.69,1.42c1,0.16,1.89.33,2.89,0.51l0.05,0-3.93-6.81,1.84-1.06,5.53,9.59-1.44.8-10.54-1.4c-1-.12-1.93-0.27-2.91-0.47l-0.05,0,4.24,7.35-1.82,1-5.89-10.21Z" transform="translate(-16.52 0)"/><path class="c" d="M673,255.9c-4.65,2.68-8.54.63-10.29-2.41-2-3.4-1-7.47,3-9.76,4.21-2.43,8.27-1.1,10.28,2.38S676.81,253.68,673,255.9Zm-5.89-9.9c-2.75,1.59-3.92,4.37-2.63,6.61s4.26,2.63,7.09,1c2.13-1.23,4.22-3.86,2.66-6.56S669.47,244.62,667.07,246Zm14.7-1.66-5.21-.8-0.83-1.43h4.74Zm2.17,3.77-5.22-.83-0.83-1.43h4.74Z" transform="translate(-16.52 0)"/><path class="c" d="M268.5,58.12h2.61v9.75h0.09c0.54-.78,1.08-1.5,1.59-2.16L279,58.12h3.24l-7.32,8.58,7.89,11.64h-3.09L273,68.41l-1.92,2.22v7.71H268.5V58.12Z" transform="translate(-16.52 0)"/><path class="c" d="M286.14,71.56c0.06,3.57,2.34,5,5,5a9.55,9.55,0,0,0,4-.75l0.45,1.89a11.76,11.76,0,0,1-4.83.9c-4.47,0-7.14-2.94-7.14-7.32s2.58-7.83,6.81-7.83c4.74,0,6,4.17,6,6.84a9.91,9.91,0,0,1-.09,1.23h-10.2Zm7.74-1.89c0-1.68-.69-4.29-3.66-4.29-2.67,0-3.84,2.46-4,4.29h7.71Zm0.63-12.12-3.66,4.29H289l2.64-4.29h2.91Z" transform="translate(-16.52 0)"/><path class="c" d="M299.7,68.35c0-1.71,0-3.18-.12-4.53h2.31L302,66.67h0.12a4.36,4.36,0,0,1,4-3.18,2.85,2.85,0,0,1,.75.09v2.49A4,4,0,0,0,306,66c-1.86,0-3.18,1.41-3.54,3.39a7.43,7.43,0,0,0-.12,1.23v7.74H299.7v-10Z" transform="translate(-16.52 0)"/><path class="c" d="M321.75,57V74.59c0,1.29,0,2.76.12,3.75H319.5l-0.12-2.52h-0.06a5.37,5.37,0,0,1-4.95,2.85c-3.51,0-6.21-3-6.21-7.38,0-4.83,3-7.8,6.51-7.8a4.85,4.85,0,0,1,4.38,2.22h0.06V57h2.64Zm-2.64,12.69a4.67,4.67,0,0,0-.12-1.11,3.88,3.88,0,0,0-3.81-3.06c-2.73,0-4.35,2.4-4.35,5.61,0,2.94,1.44,5.37,4.29,5.37A4,4,0,0,0,319,73.39a4.59,4.59,0,0,0,.12-1.14V69.73Z" transform="translate(-16.52 0)"/><path class="c" d="M327.6,71.56c0.06,3.57,2.34,5,5,5a9.55,9.55,0,0,0,4-.75l0.45,1.89a11.76,11.76,0,0,1-4.83.9c-4.47,0-7.14-2.94-7.14-7.32s2.58-7.83,6.81-7.83c4.74,0,6,4.17,6,6.84a9.91,9.91,0,0,1-.09,1.23H327.6Zm7.74-1.89c0-1.68-.69-4.29-3.66-4.29-2.67,0-3.84,2.46-4,4.29h7.71Z" transform="translate(-16.52 0)"/><path class="c" d="M339.51,76.81l6.57-8.55c0.63-.78,1.23-1.47,1.89-2.25V65.95h-7.86V63.82h11.07l0,1.65-6.48,8.43c-0.6.81-1.2,1.53-1.86,2.28v0.06h8.49v2.1H339.51V76.81Z" transform="translate(-16.52 0)"/><path class="c" d="M352.35,76.81l6.57-8.55c0.63-.78,1.23-1.47,1.89-2.25V65.95H353V63.82H364l0,1.65-6.48,8.43c-0.6.81-1.2,1.53-1.86,2.28v0.06h8.49v2.1H352.35V76.81Z" transform="translate(-16.52 0)"/><path class="c" d="M373,69.25v2h-7.41v-2H373Z" transform="translate(-16.52 0)"/><path class="c" d="M376.32,78.34V65.83h-2v-2h2V63.13A6.84,6.84,0,0,1,378,58.06a5.05,5.05,0,0,1,3.54-1.35,6.12,6.12,0,0,1,2.25.42l-0.36,2a4,4,0,0,0-1.68-.33c-2.25,0-2.82,2-2.82,4.2v0.78h3.51v2h-3.51V78.34h-2.61Z" transform="translate(-16.52 0)"/><path class="c" d="M385.89,71.56c0.06,3.57,2.34,5,5,5a9.55,9.55,0,0,0,4-.75l0.45,1.89a11.76,11.76,0,0,1-4.83.9c-4.47,0-7.14-2.94-7.14-7.32s2.58-7.83,6.81-7.83c4.74,0,6,4.17,6,6.84a9.91,9.91,0,0,1-.09,1.23h-10.2Zm7.74-1.89c0-1.68-.69-4.29-3.66-4.29-2.67,0-3.84,2.46-4,4.29h7.71Z" transform="translate(-16.52 0)"/><path class="c" d="M399.45,57h2.64v21.3h-2.64V57Z" transform="translate(-16.52 0)"/><path class="c" d="M408,71.56c0.06,3.57,2.34,5,5,5a9.55,9.55,0,0,0,4-.75l0.45,1.89a11.76,11.76,0,0,1-4.83.9c-4.47,0-7.14-2.94-7.14-7.32s2.58-7.83,6.81-7.83c4.74,0,6,4.17,6,6.84a9.91,9.91,0,0,1-.09,1.23H408Zm7.74-1.89c0-1.68-.69-4.29-3.66-4.29-2.67,0-3.84,2.46-4,4.29h7.71Z" transform="translate(-16.52 0)"/><path class="c" d="M421.56,57h2.64v21.3h-2.64V57Z" transform="translate(-16.52 0)"/><path class="c" d="M430.11,71.56c0.06,3.57,2.34,5,5,5a9.55,9.55,0,0,0,4-.75l0.45,1.89a11.76,11.76,0,0,1-4.83.9c-4.47,0-7.14-2.94-7.14-7.32s2.58-7.83,6.81-7.83c4.74,0,6,4.17,6,6.84a9.91,9.91,0,0,1-.09,1.23h-10.2Zm7.74-1.89c0-1.68-.69-4.29-3.66-4.29-2.67,0-3.84,2.46-4,4.29h7.71Z" transform="translate(-16.52 0)"/><path class="c" d="M446.28,70.48h0.06c0.36-.51.87-1.14,1.29-1.65l4.26-5h3.18l-5.61,6,6.39,8.55h-3.21l-5-7-1.35,1.5v5.46h-2.61V57h2.61V70.48Z" transform="translate(-16.52 0)"/><path class="c" d="M393,628.41c0,7-4.23,10.65-9.39,10.65-5.34,0-9.09-4.14-9.09-10.26,0-6.42,4-10.62,9.39-10.62S393,622.41,393,628.41Zm-15.69.33c0,4.32,2.34,8.19,6.45,8.19s6.48-3.81,6.48-8.4c0-4-2.1-8.22-6.45-8.22S377.3,624.3,377.3,628.74Z" transform="translate(-16.52 0)"/><path class="c" d="M396.29,628.74c0-1.71,0-3.18-.12-4.53h2.31l0.09,2.85h0.12a4.36,4.36,0,0,1,4-3.18,2.86,2.86,0,0,1,.75.09v2.49a3.93,3.93,0,0,0-.9-0.09c-1.86,0-3.18,1.41-3.54,3.39a7.42,7.42,0,0,0-.12,1.23v7.74h-2.61v-10Z" transform="translate(-16.52 0)"/><path class="c" d="M407.87,624.21l2.85,8.16a37.25,37.25,0,0,1,1.17,3.72H412c0.33-1.2.75-2.4,1.23-3.72l2.82-8.16h2.76l-5.7,14.52h-2.52l-5.52-14.52h2.82Z" transform="translate(-16.52 0)"/><path class="c" d="M434.12,631.35c0,5.37-3.72,7.71-7.23,7.71-3.93,0-7-2.88-7-7.47,0-4.86,3.18-7.71,7.2-7.71C431.3,623.88,434.12,626.91,434.12,631.35Zm-11.52.15c0,3.18,1.83,5.58,4.41,5.58s4.41-2.37,4.41-5.64c0-2.46-1.23-5.58-4.35-5.58S422.6,628.74,422.6,631.5Z" transform="translate(-16.52 0)"/><path class="c" d="M437.09,636a6.92,6.92,0,0,0,3.48,1c1.92,0,2.82-1,2.82-2.16s-0.75-1.95-2.7-2.67c-2.61-.93-3.84-2.37-3.84-4.11,0-2.34,1.89-4.26,5-4.26a7.24,7.24,0,0,1,3.57.9l-0.66,1.92a5.65,5.65,0,0,0-3-.84c-1.56,0-2.43.9-2.43,2s0.87,1.74,2.76,2.46c2.52,1,3.81,2.22,3.81,4.38,0,2.55-2,4.35-5.43,4.35a8.28,8.28,0,0,1-4.08-1Z" transform="translate(-16.52 0)"/><path class="c" d="M458.3,630.87h0.06c0.36-.51.87-1.14,1.29-1.65l4.26-5h3.18l-5.61,6,6.39,8.55h-3.21l-5-7-1.35,1.5v5.46h-2.61v-21.3h2.61v13.44Z" transform="translate(-16.52 0)"/><path class="c" d="M471.23,631.95c0.06,3.57,2.34,5,5,5a9.55,9.55,0,0,0,4-.75l0.45,1.89a11.76,11.76,0,0,1-4.83.9c-4.47,0-7.14-2.94-7.14-7.32s2.58-7.83,6.81-7.83c4.74,0,6,4.17,6,6.84a9.89,9.89,0,0,1-.09,1.23h-10.2Zm7.74-1.89c0-1.68-.69-4.29-3.66-4.29-2.67,0-3.84,2.46-4,4.29H479Z" transform="translate(-16.52 0)"/><path class="c" d="M484.79,628.74c0-1.71,0-3.18-.12-4.53H487l0.09,2.85h0.12a4.36,4.36,0,0,1,4-3.18,2.88,2.88,0,0,1,.75.09v2.49a3.93,3.93,0,0,0-.9-0.09c-1.86,0-3.18,1.41-3.54,3.39a7.37,7.37,0,0,0-.12,1.23v7.74h-2.61v-10Z" transform="translate(-16.52 0)"/><path class="c" d="M495.77,631.95c0.06,3.57,2.34,5,5,5a9.55,9.55,0,0,0,4-.75l0.45,1.89a11.76,11.76,0,0,1-4.83.9c-4.47,0-7.14-2.94-7.14-7.32s2.58-7.83,6.81-7.83c4.74,0,6,4.17,6,6.84a9.89,9.89,0,0,1-.09,1.23h-10.2Zm7.74-1.89c0-1.68-.69-4.29-3.66-4.29-2.67,0-3.84,2.46-4,4.29h7.71Z" transform="translate(-16.52 0)"/><path class="c" d="M509,636a6.92,6.92,0,0,0,3.48,1c1.92,0,2.82-1,2.82-2.16s-0.75-1.95-2.7-2.67c-2.61-.93-3.84-2.37-3.84-4.11,0-2.34,1.89-4.26,5-4.26a7.24,7.24,0,0,1,3.57.9l-0.66,1.92a5.65,5.65,0,0,0-3-.84c-1.56,0-2.43.9-2.43,2s0.87,1.74,2.76,2.46c2.52,1,3.81,2.22,3.81,4.38,0,2.55-2,4.35-5.43,4.35a8.28,8.28,0,0,1-4.08-1Z" transform="translate(-16.52 0)"/><path class="c" d="M534.35,631.35c0,5.37-3.72,7.71-7.23,7.71-3.93,0-7-2.88-7-7.47,0-4.86,3.18-7.71,7.2-7.71C531.53,623.88,534.35,626.91,534.35,631.35Zm-11.52.15c0,3.18,1.83,5.58,4.41,5.58s4.41-2.37,4.41-5.64c0-2.46-1.23-5.58-4.35-5.58S522.83,628.74,522.83,631.5Zm5.91-13.56-3.3,4.11h-1.65l2.37-4.11h2.58Zm4.35,0L529.76,622h-1.65l2.37-4.11h2.61Z" transform="translate(-16.52 0)"/></svg>