<svg id="Base" xmlns="http://www.w3.org/2000/svg" viewBox="0 0 768.44 697.9" width="550px">
    <defs>
        <style>
            .cls-1 {
                fill: #8c288a;
            }

            .cls-1-mod {
                fill: #ed45e6;
                /*stroke: #ffec27;
                stroke-width:3;*/
            }

            .cls-2 {
                fill: #fff;
            }

            .cls-3 {
                font-size: 30px;
                fill: #8c2989;
                font-family: Calibri;
            }

            .cls-4 {
                letter-spacing: -1px;
            }
        </style>
    </defs>
    <title>lecke</title>
    <path class="cls-1" d="M768.95,288.78l-38.12-66L663.55,106.23l-22.1-38.28c-7.93-13.74-16.58-26.71-28.58-37.39A121.77,121.77,0,0,0,532.38,0c-9.08,0-18.16,0-27.25,0H274.29C255.13,0,236.58,2.85,219,10.83c-23.46,10.63-42.38,28.64-55.22,50.83q-23.12,40-46.16,80L52.05,255.13,34.19,286.07c-12.64,21.9-19.28,46.41-17.35,71.8,1.56,20.5,8.76,39,18.92,56.65L56.23,450,122.8,565.27c13.89,24.05,27.68,48.17,41.67,72.17a121.72,121.72,0,0,0,68.71,55c14.77,4.6,29.78,5.39,45.06,5.39H511.82c8,0,16,.16,24,0a121,121,0,0,0,88.35-42c7.87-9.22,13.69-19.6,19.71-30l24.34-42.15,67.57-117,25.06-43.4c5.6-9.7,11.49-19.25,15.68-29.67,13.68-34.06,10.51-72.92-7.55-104.72-1.59-2.8-5.91-.28-4.32,2.52,19.74,34.77,20.55,77.89,1.23,113.06-3.71,6.75-7.68,13.36-11.53,20L694.39,528.21l-55.68,96.43c-6.65,11.52-13.24,22.78-22.54,32.52a116.46,116.46,0,0,1-83.63,35.68c-27,.13-54,0-81,0H277.07c-16.43,0-32.45-1.36-48.09-7.08-25.85-9.46-47-28.08-60.74-51.79q-7.61-13.15-15.19-26.32L89.81,498.12l-50.2-86.95c-11.24-19.46-18.24-40.32-18.1-63.05,0.14-22.21,7.2-42.55,18.17-61.56L90.3,198.89,153.38,89.62q7.47-12.93,14.94-25.87c13.83-23.87,35.27-42.54,61.35-51.9C245.23,6.27,261.13,5,277.45,5H452.52c26.69,0,53.39-.13,80.09,0a116.45,116.45,0,0,1,84.57,36.74c8.93,9.59,15.28,20.62,21.76,31.85l55.95,96.9L754.62,274l10,17.34C766.24,294.09,770.56,291.57,768.95,288.78Z" transform="translate(-16.52 0)"/>
    <g>
        <polygon class="cls-2" points="518.97 115.73 249.71 115.73 115.08 348.93 249.71 582.12 518.97 582.12 653.61 348.93 518.97 115.73"/>
        <path class="cls-1" d="M535.49,113.24H266.22a2.51,2.51,0,0,0-2.16,1.24L217.92,194.4,145.48,319.88l-11,19.05c-1.55,2.69-3.79,5.55-4.89,8.46-0.91,2.41.5,3.93,1.69,6l8.31,14.39,69.1,119.68c18.15,31.43,35.85,63.17,54.46,94.34,0.31,0.52.61,1.05,0.91,1.58a2.51,2.51,0,0,0,2.16,1.24H535.49a2.51,2.51,0,0,0,2.16-1.24l46.15-79.93L656.24,378l11-19.05c1.55-2.69,3.79-5.55,4.89-8.46,0.91-2.41-.5-3.93-1.69-6l-8.31-14.39L593,210.39c-18.15-31.43-35.85-63.17-54.46-94.34-0.31-.52-0.61-1.05-0.91-1.58-1.61-2.79-5.93-.27-4.32,2.52L579,196.1l72.24,125.12,16.72,29v-2.52l-45.67,79.1L550.05,551.89l-16.72,29,2.16-1.24H266.22l2.16,1.24-45.67-79.1L150.47,376.63l-16.72-29v2.52l45.67-79.1L251.66,146l16.72-29-2.16,1.24H535.49C538.71,118.24,538.71,113.24,535.49,113.24Z" transform="translate(-16.52 0)"/>
    </g>
    <path class="cls-1" d="M129.18,348.26c-6.26,17.34-13.11,34.57-18.22,52.28-9.44,32.69-13.64,67-13.43,101,0,6.84.17,13.73,0.83,20.55,0.31,3.17,5.31,3.21,5,0-1.83-19-1-38.48.78-57.41A342.58,342.58,0,0,1,114,408.37c4.44-16.75,10.69-32.93,16.57-49.21l3.45-9.56c1.1-3-3.73-4.34-4.82-1.33h0Z" transform="translate(-16.52 0)"/>
    <path class="cls-1" d="M537.26,114c-13.69-16.24-26.92-33-42.08-47.9A362.39,362.39,0,0,0,419,9.18C413.51,6.06,407.9,3,402.12.36c-2.91-1.32-5.45,3-2.52,4.32,16,7.27,31.15,16.81,45.56,26.74A351.3,351.3,0,0,1,486.92,65c13.73,13,25.7,27.43,37.85,41.84l9,10.62c2.08,2.46,5.6-1.09,3.54-3.54h0Z" transform="translate(-16.52 0)"/>
    <path class="cls-1" d="M264.46,583.89c13.69,16.24,26.92,33,42.08,47.9a362.39,362.39,0,0,0,76.14,56.89c5.53,3.12,11.14,6.19,16.92,8.82,2.91,1.32,5.45-3,2.52-4.32-16-7.27-31.15-16.81-45.56-26.74a351.3,351.3,0,0,1-41.77-33.63c-13.73-13-25.7-27.43-37.85-41.84l-9-10.62c-2.08-2.46-5.6,1.09-3.54,3.54h0Z" transform="translate(-16.52 0)"/>
    <path class="cls-1" d="M536.15,584.53c20.56-3.68,41.34-6.7,61.5-12.21A361.83,361.83,0,0,0,686,534.51c5.46-3.23,10.91-6.54,16.07-10.22,2.6-1.85.1-6.19-2.52-4.32-14.35,10.24-30.27,18.65-46.15,26.18a350.66,350.66,0,0,1-50.64,19.5c-18,5.33-36.39,8.4-54.81,11.7l-13.17,2.35c-3.16.57-1.82,5.39,1.33,4.82h0Z" transform="translate(-16.52 0)"/>
    <path class="cls-1" d="M672.53,349.59c6.26-17.34,13.11-34.57,18.22-52.28,9.44-32.69,13.64-67,13.43-101,0-6.84-.17-13.73-0.83-20.55-0.31-3.17-5.31-3.21-5,0,1.83,19,1,38.48-.78,57.41a342.58,342.58,0,0,1-9.85,56.36c-4.44,16.75-10.69,32.93-16.57,49.21l-3.45,9.56c-1.1,3,3.73,4.34,4.82,1.33h0Z" transform="translate(-16.52 0)"/>
    <path class="cls-1" d="M265.56,113.38c-20.56,3.68-41.34,6.7-61.5,12.21a361.83,361.83,0,0,0-88.39,37.81c-5.46,3.23-10.91,6.54-16.07,10.22-2.6,1.85-.1,6.19,2.52,4.32,14.35-10.24,30.27-18.65,46.15-26.18a350.66,350.66,0,0,1,50.64-19.5c18-5.33,36.39-8.4,54.81-11.7l13.17-2.35c3.16-.57,1.82-5.39-1.33-4.82h0Z" transform="translate(-16.52 0)"/>
    <path class="cls-1" id="kerdezz_kor" d="M246.89,69.36c-0.31,6.81-5.46,12.5-12.5,12.5a12.5,12.5,0,1,1,0-25c7.05,0,12.19,5.68,12.5,12.5,0.14,3.2,5.14,3.22,5,0-0.43-9.5-7.67-17.5-17.5-17.5a17.5,17.5,0,1,0,0,35c9.83,0,17.07-8,17.5-17.5C252,66.15,247,66.15,246.89,69.36Z" transform="translate(-16.52 0)"/>
    <path class="cls-1" id="tunet_kor" d="M579.77,69.34c-0.31,6.81-5.46,12.5-12.5,12.5a12.5,12.5,0,0,1,0-25c7.05,0,12.19,5.68,12.5,12.5,0.14,3.2,5.14,3.22,5,0-0.43-9.5-7.67-17.5-17.5-17.5a17.5,17.5,0,0,0,0,35c9.83,0,17.07-8,17.5-17.5C584.92,66.12,579.91,66.13,579.77,69.34Z" transform="translate(-16.52 0)"/>
    <path class="cls-1" id="orvos_kor" d="M579.81,628.49c-0.31,6.81-5.46,12.5-12.5,12.5a12.5,12.5,0,0,1,0-25c7.05,0,12.19,5.68,12.5,12.5,0.14,3.2,5.14,3.22,5,0-0.43-9.5-7.67-17.5-17.5-17.5a17.5,17.5,0,0,0,0,35c9.83,0,17.07-8,17.5-17.5C585,625.27,580,625.28,579.81,628.49Z" transform="translate(-16.52 0)"/>
    <path class="cls-1" id="segitseg_kor" d="M245,628.49c-0.31,6.81-5.46,12.5-12.5,12.5a12.5,12.5,0,0,1,0-25c7.05,0,12.19,5.68,12.5,12.5,0.14,3.2,5.14,3.22,5,0-0.43-9.5-7.67-17.5-17.5-17.5a17.5,17.5,0,0,0,0,35c9.83,0,17.07-8,17.5-17.5C250.17,625.27,245.17,625.28,245,628.49Z" transform="translate(-16.52 0)"/>
    <path class="cls-1" id="vallalom_kor" d="M80.36,348.93c-0.31,6.81-5.46,12.5-12.5,12.5a12.5,12.5,0,1,1,0-25c7.05,0,12.19,5.68,12.5,12.5,0.14,3.2,5.14,3.22,5,0-0.43-9.5-7.67-17.5-17.5-17.5a17.5,17.5,0,1,0,0,35c9.83,0,17.07-8,17.5-17.5C85.5,345.71,80.5,345.72,80.36,348.93Z" transform="translate(-16.52 0)"/>
    <path class="cls-1" id="tudastar_kor" d="M738.84,348.93c-0.31,6.81-5.46,12.5-12.5,12.5a12.5,12.5,0,0,1,0-25c7.05,0,12.19,5.68,12.5,12.5,0.14,3.2,5.14,3.22,5,0-0.43-9.5-7.67-17.5-17.5-17.5a17.5,17.5,0,0,0,0,35c9.83,0,17.07-8,17.5-17.5C744,345.71,739,345.72,738.84,348.93Z" transform="translate(-16.52 0)"/>
    <path class="cls-1" d="M230,175.72V507.9c0,4.41-.56,9.26,0,13.64a4.78,4.78,0,0,1,0,.59,2.54,2.54,0,0,0,2.5,2.5h336.6a2.54,2.54,0,0,0,2.5-2.5V190c0-4.41.56-9.26,0-13.64a4.78,4.78,0,0,1,0-.59,2.54,2.54,0,0,0-2.5-2.5H232.52c-3.22,0-3.22,5,0,5h336.6l-2.5-2.5V516.85c0,1.28-.43,3.46,0,4.69a2.15,2.15,0,0,1,0,.59l2.5-2.5H232.52l2.5,2.5V190c0-4.41.56-9.26,0-13.64a4.78,4.78,0,0,1,0-.59C235,172.51,230,172.5,230,175.72Z" transform="translate(-16.52 0)"/>
    <!--
    <image x="132" y="105" width="500" height="500" xlink:href="images/nice.svg" />
    -->
    <text class="cls-3" transform="translate(69.71 328.56) rotate(-60)">Én <tspan x="37.19" y="0">e</tspan><tspan x="51.83" y="0">zt </tspan><tspan x="80.51" y="0">v</tspan><tspan x="93.62" y="0">állalom</tspan></text>
    <text class="cls-3" transform="translate(654.03 466.44) rotate(-60)"><tspan class="cls-4">T</tspan><tspan x="12.76" y="0">udá</tspan><tspan x="58.65" y="0">s</tspan><tspan x="70.05" y="0">t</tspan><tspan x="79.73" y="0">ár</tspan></text>
    <text class="cls-3" transform="translate(109.04 463.73) rotate(60)">Segítség<tspan x="100.55" y="0">k</tspan><tspan x="113.22" y="0">é</tspan><tspan x="128.14" y="0">r</tspan><tspan x="138.21" y="0">és</tspan></text>
    <text class="cls-3" transform="translate(556.57 97.77) rotate(60)"><tspan class="cls-4">T</tspan><tspan x="12.76" y="0">ün</tspan><tspan x="44.28" y="0">e</tspan><tspan x="59.05" y="0">t</tspan><tspan x="68.77" y="0">ellenőr</tspan><tspan x="154.44" y="0">z</tspan><tspan x="165.63" y="0">ő</tspan></text>
    <text class="cls-3" transform="translate(249.71 78.34)">K<tspan x="15.04" y="0">é</tspan><tspan x="29.97" y="0">r</tspan><tspan x="40.02" y="0">d</tspan><tspan x="55.78" y="0">e</tspan><tspan x="70.42" y="0">zz</tspan><tspan x="94.12" y="0">-</tspan><tspan x="103.04" y="0">f</tspan><tspan x="111.45" y="0">elelek</tspan></text>
    <text x="-16.52"/>  <text class="cls-3" transform="translate(360.62 638.73)">O<tspan x="19.86" y="0">r</tspan><tspan x="30.6" y="0">v</tspan><tspan x="43.87" y="0">os </tspan><tspan x="78.21" y="0">k</tspan><tspan x="90.88" y="0">e</tspan><tspan x="105.81" y="0">r</tspan><tspan x="115.87" y="0">eső</tspan></text>
    <a xlink:href="#">
        <rect id="kerdezz" x="243" y="47" fill="rgba(0, 0, 0, 0.2)" width="0" height="40" />
        <rect id="kerdezz_referencia" x="242" y="47" width="197" height="40" opacity="0" />
        <rect id="kerdezz_hover" x="195" y="44" opacity="0" width="244" height="50" />
    </a>
    <a xlink:href="#">
        <polygon id="tunet" points="" opacity="0.2" />
        <polygon id="tunet_referencia" points="677,242 580,75 545,99 644,268" opacity="0" />
        <polygon id="tunet_hover" points="677,242 560,34 516,56 644,268" opacity="0" />
    </a>
    <a xlink:href="#">
        <polygon id="tudastar" points="" opacity="0.2" />
        <polygon id="tudastar_referencia" points="683,358 718,379 658,475 623,454" opacity="0" />
        <polygon id="tudastar_hover" points="697,319 743,338 658,475 623,454" opacity="0" />
    </a>
    <a xlink:href="#">
        <polygon id="orvos" points="" opacity="0.2" />
        <polygon id="orvos_referencia" points="528,610 527,648 353,647 353,610" opacity="0" />
        <polygon id="orvos_hover" points="575,603 575,650 353,647 353,610" opacity="0" />
    </a>
    <a xlink:href="#">
        <polygon id="segitseg" points="" opacity="0.2" />
        <polygon id="segitseg_referencia" points="222,600 188,623 95,463 129,441" opacity="0" />
        <polygon id="segitseg_hover" points="247,630 213,665 95,463 129,441" opacity="0" />
    </a>
    <a xlink:href="#">
        <polygon id="vallalom" points="" opacity="0.2" />
        <polygon id="vallalom_referencia" points="42,320 76,340 172,168 138,149" opacity="0" />
        <polygon id="vallalom_hover" points="18,358 58,382 172,168 138,149" opacity="0" />
    </a>
</svg>